<?xml version="1.0" encoding="UTF-8"?>
<svg version="1.1" xmlns="http://www.w3.org/2000/svg" width="878" height="876">
  <path d="M0 0 C289.74 0 579.48 0 878 0 C878 289.08 878 578.16 878 876 C588.26 876 298.52 876 0 876 C0 586.92 0 297.84 0 0 Z " fill="none" transform="translate(0,0)"/>
  <path d="M0 0 C168.3 0 336.6 0 510 0 C510 39.27 510 78.54 510 119 C448.62 119 387.24 119 324 119 C324 290.93 324 462.86 324 640 C278.79 640 233.58 640 187 640 C187 468.4 187 296.8 187 120 C125.29 120 63.58 120 0 120 C0 80.4 0 40.8 0 0 Z " fill="#5C4639" transform="translate(162,87)" stroke="white" stroke-width="0"/>
</svg>